<?xml version="1.0" encoding="utf-8"?>
<svg version="1.1" id="Calque_1" xmlns="http://www.w3.org/2000/svg" xmlns:xlink="http://www.w3.org/1999/xlink" x="0px" y="0px"
	 viewBox="0 0 289.7 53.7" enable-background="new 0 0 289.7 53.7" xml:space="preserve">
<rect x="30" y="35.3" fill="#A4A4A4" width="4.7" height="17.5"/>
<g>
	<path fill="#A4A4A4" d="M72.1,40.4c-0.2-0.1-1.7-0.9-3.9-0.9c-3,0-5.1,2-5.1,4.7c0,2.6,2,4.7,5.1,4.7c2.2,0,3.7-0.8,3.9-0.9v4.7
		c-0.6,0.2-2.2,0.6-4.2,0.6c-5.2,0-9.8-3.4-9.8-9.1c0-5.2,4.1-9.1,9.8-9.1c2.2,0,3.8,0.5,4.2,0.6V40.4z"/>
	<path fill="#A4A4A4" d="M23.6,40.4c-0.2-0.1-1.7-0.9-3.9-0.9c-3,0-5.1,2-5.1,4.7c0,2.6,2,4.7,5.1,4.7c2.2,0,3.7-0.8,3.9-0.9v4.7
		c-0.6,0.2-2.2,0.6-4.2,0.6c-5.2,0-9.8-3.4-9.8-9.1c0-5.2,4.1-9.1,9.8-9.1c2.2,0,3.8,0.5,4.2,0.6V40.4z"/>
	<path fill="#A4A4A4" d="M96.4,44.1c0,5-4.1,9.1-9.7,9.1c-5.7,0-9.7-4.1-9.7-9.1c0-5,4.1-9.1,9.7-9.1C92.3,35,96.4,39.1,96.4,44.1
		 M86.7,39.5c-2.8,0-4.8,2.1-4.8,4.6c0,2.6,2,4.6,4.8,4.6c2.8,0,4.8-2.1,4.8-4.6C91.5,41.6,89.4,39.5,86.7,39.5"/>
	<path fill="#A4A4A4" d="M52.2,39.3c-0.1,0-2-0.5-3.6-0.5c-1.9,0-2.9,0.6-2.9,1.4c0,1.1,1.4,1.4,2.1,1.7l1.3,0.4
		c3,0.9,4.4,2.9,4.4,5c0,4.4-4.1,5.9-7.6,5.9c-2.5,0-4.8-0.4-5-0.5v-4c0.4,0.1,2.4,0.7,4.4,0.7c2.3,0,3.4-0.6,3.4-1.6
		c0-0.9-0.9-1.4-2.1-1.7c-0.3-0.1-0.7-0.2-1-0.3c-2.6-0.8-4.7-2.2-4.7-5.1c0-3.3,2.6-5.5,6.9-5.5c2.3,0,4.4,0.5,4.5,0.6V39.3z"/>
	<path fill="#A4A4A4" d="M4.6,16.5c0-1.2-1-2.2-2.3-2.2c-1.3,0-2.3,1-2.3,2.2v4.6c0,1.2,1,2.2,2.3,2.2c1.3,0,2.3-1,2.3-2.2V16.5z"/>
	<path fill="#A4A4A4" d="M17.3,10.5c0-1.2-1-2.2-2.3-2.2c-1.3,0-2.3,1-2.3,2.2v10.6c0,1.2,1,2.2,2.3,2.2c1.3,0,2.3-1,2.3-2.2V10.5z"
		/>
	<path fill="#A4A4A4" d="M29.9,2.2c0-1.2-1-2.2-2.3-2.2c-1.3,0-2.3,1-2.3,2.2v23.3c0,1.2,1,2.2,2.3,2.2c1.3,0,2.3-1,2.3-2.2V2.2z"/>
	<path fill="#A4A4A4" d="M42.6,10.5c0-1.2-1-2.2-2.3-2.2c-1.3,0-2.3,1-2.3,2.2v10.6c0,1.2,1,2.2,2.3,2.2c1.3,0,2.3-1,2.3-2.2V10.5z"
		/>
	<path fill="#A4A4A4" d="M55.3,16.5c0-1.2-1-2.2-2.3-2.2c-1.3,0-2.3,1-2.3,2.2v4.6c0,1.2,1,2.2,2.3,2.2c1.3,0,2.3-1,2.3-2.2V16.5z"
		/>
	<path fill="#A4A4A4" d="M67.9,10.5c0-1.2-1-2.2-2.3-2.2c-1.3,0-2.3,1-2.3,2.2v10.6c0,1.2,1,2.2,2.3,2.2c1.3,0,2.3-1,2.3-2.2V10.5z"
		/>
	<path fill="#A4A4A4" d="M80.6,2.2c0-1.2-1-2.2-2.3-2.2C77.1,0,76,1,76,2.2v23.3c0,1.2,1,2.2,2.3,2.2c1.3,0,2.3-1,2.3-2.2V2.2z"/>
	<path fill="#A4A4A4" d="M93.3,10.5c0-1.2-1-2.2-2.3-2.2c-1.3,0-2.3,1-2.3,2.2v10.6c0,1.2,1,2.2,2.3,2.2c1.3,0,2.3-1,2.3-2.2V10.5z"
		/>
	<path fill="#A4A4A4" d="M105.9,16.5c0-1.2-1-2.2-2.3-2.2c-1.3,0-2.3,1-2.3,2.2v4.6c0,1.2,1,2.2,2.3,2.2c1.3,0,2.3-1,2.3-2.2V16.5z"
		/>
</g>
<polygon fill="#78BE20" points="154.3,52.9 139.9,19.1 139.9,52.9 136.9,52.9 136.9,15.3 141.4,15.3 156,49.8 169.7,15.3 174,15.3 
	174,52.9 171.1,52.9 171.1,19.4 157.5,52.9 "/>
<g>
	<path fill="#78BE20" d="M183.4,37.6h19.7c-0.4-6.9-4.5-10.4-9.8-10.4C188.2,27.3,184,30.9,183.4,37.6 M205.8,45.5
		c-1.4,5-5.8,8.2-11.8,8.2c-7.7,0-13.5-5.1-13.5-14.4c0-9.3,5.6-14.4,13-14.4c7.3,0,12.9,4.7,12.9,15h-22.9
		c0.3,7.7,4.9,11.3,10.6,11.3c4.3,0,7.6-2.2,8.7-5.8H205.8z"/>
	<path fill="#78BE20" d="M213.2,52.9V25.7h2.4L216,31c1.5-4.1,4.4-6,8-6c1.1,0,2.3,0.2,3,0.4v2.8c-1-0.3-2-0.5-3.1-0.5
		c-4.2,0-7.7,3.9-7.7,10.4v14.8H213.2z"/>
	<path fill="#78BE20" d="M249.4,43.2v-5.1l-7.7,1.3c-6.8,1.1-8.8,3.1-8.8,6.4c0,3.7,3,5.5,7.2,5.5C244.7,51.3,249.4,48,249.4,43.2
		 M230.7,32.8c0.4-4.6,4.8-7.8,11.1-7.8c6.4,0,10.6,3.4,10.6,8.9v19h-2.4l-0.4-4.5c-1.8,2.8-5,5.3-10.1,5.3c-5.5,0-9.5-2.9-9.5-7.7
		c0-4.6,3-7.5,11-8.7l8.6-1.4v-2.3c0-3.9-2.9-6.3-7.8-6.3c-4.5,0-7.5,2.2-7.8,5.5H230.7z"/>
</g>
<polygon fill="#78BE20" points="259.9,52.9 259.9,15.3 262.9,15.3 262.9,36.8 276.5,25.7 280.5,25.7 265.9,37.6 282.4,52.9 
	278.4,52.9 262.9,38.5 262.9,52.9 "/>
<path fill="#78BE20" d="M286.4,25.7h3v27.1h-3V25.7z M286.1,15.3h3.6v3.9h-3.6V15.3z"/>
</svg>