<?xml version="1.0" encoding="utf-8"?>
<svg version="1.1" id="Calque_1" xmlns="http://www.w3.org/2000/svg" xmlns:xlink="http://www.w3.org/1999/xlink" x="0px" y="0px"
	 viewBox="0 0 179.1 27.4" style="enable-background:new 0 0 179.1 27.4;" xml:space="preserve">
<style type="text/css">
	.st0{fill:#164194;}
</style>
<polyline class="st0" points="148.2,20.9 147.9,0.8 154.2,0.8 154.2,26.1 145.1,26.1 138.8,5.4 138.6,5.4 139,26.1 132.7,26.1 
	132.7,0.8 142.2,0.8 148.1,20.9 148.2,20.9 "/>
<polyline class="st0" points="33.1,3.2 29.6,26.4 22.7,26.4 27.4,0.8 38.8,0.8 43.5,26.4 36.6,26.4 33.2,3.2 33.1,3.2 "/>
<polyline class="st0" points="62.9,20.4 66.1,0.8 76.5,0.8 77.1,26.4 70.7,26.4 70.5,3.4 70.4,3.4 66.1,26.4 59.6,26.4 55.3,3.4 
	55.2,3.4 55,26.4 48.6,26.4 49.2,0.8 59.6,0.8 62.8,20.4 62.9,20.4 "/>
<path class="st0" d="M11.9,19.2c0.2,0.6,0.2,1.4,0.1,1.9c-0.2,0.9-0.8,1.7-2.5,1.7c-1.6,0-2.6-0.9-2.6-2.3l0-2.5H0l0,2
	c0,5.7,4.5,7.4,9.3,7.4c4.6,0,8.4-1.6,9-5.9c0.3-2.2,0.1-3.7,0-4.2c-1.1-5.4-10.8-7-11.5-10c-0.1-0.5-0.1-1.1,0-1.3
	C7,5.2,7.5,4.3,9.1,4.3c1.5,0,2.4,0.9,2.4,2.3c0,0.5,0,1.6,0,1.6h6.4V6.4c0-5.6-5-6.4-8.6-6.4C4.7,0,1,1.5,0.3,5.7
	C0.1,6.8,0.1,7.8,0.4,9.1C1.5,14.4,10.6,15.9,11.9,19.2"/>
<path class="st0" d="M95.1,19.1c0.2,0.6,0.2,1.4,0,1.9c-0.2,0.8-0.8,1.7-2.5,1.7c-1.6,0-2.5-0.9-2.5-2.3l0-2.5h-6.8l0,2
	c0,5.7,4.5,7.4,9.2,7.4c4.6,0,8.4-1.6,9-5.8c0.3-2.2,0.1-3.6,0-4.2c-1.1-5.3-10.7-6.9-11.4-9.9c-0.1-0.5-0.1-1,0-1.3
	c0.2-0.8,0.7-1.7,2.3-1.7c1.5,0,2.4,0.9,2.4,2.3c0,0.5,0,1.6,0,1.6h6.3V6.5c0-5.5-5-6.4-8.5-6.4c-4.5,0-8.2,1.5-8.9,5.6
	c-0.2,1.1-0.2,2.1,0.1,3.4C84.8,14.4,93.8,15.9,95.1,19.1"/>
<path class="st0" d="M116.6,22.6c1.8,0,2.3-1.2,2.5-1.9c0.1-0.3,0.1-0.6,0.1-1V0.8h6.5v18.4c0,0.5,0,1.4-0.1,1.7
	c-0.4,4.8-4.2,6.3-8.9,6.3c-4.7,0-8.5-1.6-8.9-6.3c0-0.3-0.1-1.2-0.1-1.7V0.8h6.5v18.9c0,0.3,0,0.7,0.1,1
	C114.2,21.4,114.8,22.6,116.6,22.6"/>
<path class="st0" d="M169.9,22.3c1.9,0,2.5-1.2,2.6-1.9c0.1-0.3,0.1-0.6,0.1-1v-3.7H170V12h9.1v6.9c0,0.5,0,0.8-0.1,1.7
	c-0.4,4.7-4.5,6.3-9,6.3c-4.5,0-8.6-1.7-9-6.3c-0.1-0.9-0.1-1.2-0.1-1.7l0-10.8c0-0.5,0.1-1.3,0.1-1.7c0.6-4.8,4.4-6.3,9-6.3
	c4.5,0,8.5,1.5,9,6.3c0.1,0.8,0.1,1.7,0.1,1.7V9h-6.5V7.5c0,0,0-0.6-0.1-1c-0.1-0.6-0.6-1.9-2.6-1.9c-1.9,0-2.4,1.2-2.6,1.9
	c-0.1,0.3-0.1,0.8-0.1,1.2v11.7c0,0.3,0,0.7,0.1,1C167.5,21.1,168.1,22.3,169.9,22.3"/>
</svg>