<?xml version="1.0" encoding="UTF-8" standalone="no"?>
<!-- Created with Inkscape (http://www.inkscape.org/) -->

<svg
   xmlns:dc="http://purl.org/dc/elements/1.1/"
   xmlns:cc="http://creativecommons.org/ns#"
   xmlns:rdf="http://www.w3.org/1999/02/22-rdf-syntax-ns#"
   xmlns:svg="http://www.w3.org/2000/svg"
   xmlns="http://www.w3.org/2000/svg"
   xmlns:sodipodi="http://sodipodi.sourceforge.net/DTD/sodipodi-0.dtd"
   xmlns:inkscape="http://www.inkscape.org/namespaces/inkscape"
   width="127.25"
   height="37.004181"
   viewBox="0 0 33.66823 9.7906892"
   version="1.1"
   id="svg6827"
   inkscape:version="0.92.0 r15299"
   sodipodi:docname="aerohive networks.svg">
  <defs
     id="defs6821" />
  <sodipodi:namedview
     id="base"
     pagecolor="#ffffff"
     bordercolor="#666666"
     borderopacity="1.0"
     inkscape:pageopacity="0.0"
     inkscape:pageshadow="2"
     inkscape:zoom="6.3524753"
     inkscape:cx="63.124999"
     inkscape:cy="18.002089"
     inkscape:document-units="mm"
     inkscape:current-layer="layer1"
     showgrid="false"
     fit-margin-top="0"
     fit-margin-left="0"
     fit-margin-right="0"
     fit-margin-bottom="0"
     units="px"
     inkscape:window-width="1280"
     inkscape:window-height="744"
     inkscape:window-x="-4"
     inkscape:window-y="-4"
     inkscape:window-maximized="1" />
  <metadata
     id="metadata6824">
    <rdf:RDF>
      <cc:Work
         rdf:about="">
        <dc:format>image/svg+xml</dc:format>
        <dc:type
           rdf:resource="http://purl.org/dc/dcmitype/StillImage" />
        <dc:title></dc:title>
      </cc:Work>
    </rdf:RDF>
  </metadata>
  <g
     inkscape:label="Layer 1"
     inkscape:groupmode="layer"
     id="layer1"
     transform="translate(225.34468,-183.87118)">
    <g
       id="AerohiveWordmark"
       transform="matrix(0.26458333,0,0,0.26458333,-228.38739,180.69729)">
							            <path
   inkscape:connector-curvature="0"
   d="m 61.8,34.33 -0.56,-4 h -3.31 l -0.5,4 h -2.85 l 3.13,-21.68 h 3.53 l 3.41,21.68 z M 59.46,16.43 58.24,27.7 h 2.62 z"
   id="path6829" />

							            <path
   inkscape:connector-curvature="0"
   d="M 66.12,34.33 V 12.65 h 7.28 v 2.7 h -4.35 v 6.36 h 3.88 v 2.7 h -3.85 v 7.18 h 4.32 v 2.74 z"
   id="path6831" />

							            <path
   inkscape:connector-curvature="0"
   d="M 81.34,34.33 A 18.35,18.35 0 0 1 80.9,29.78 V 28.25 A 16.73,16.73 0 0 0 80.77,26 2.05,2.05 0 0 0 80.24,24.62 1.43,1.43 0 0 0 79.3,24.34 h -1.18 v 10 H 75.21 V 12.65 H 80 c 0.38,0 0.75,0 1.1,0 a 2.54,2.54 0 0 1 2.68,2.12 16.49,16.49 0 0 1 0.19,3.1 c 0,0.83 0,1.69 -0.06,2.55 a 5.22,5.22 0 0 1 -0.35,1.72 2.43,2.43 0 0 1 -2.25,1.17 2.33,2.33 0 0 1 2,0.92 c 0.5,0.76 0.54,1.65 0.54,3.44 v 2.36 c 0,2.46 0.06,2.92 0.56,4.27 z m -0.35,-18 c 0,-0.46 -0.12,-0.71 -0.31,-0.86 -0.19,-0.15 -0.5,-0.19 -1.06,-0.19 H 78.15 V 22 h 1.37 c 0.75,0 1.19,-0.19 1.38,-1 a 20.87,20.87 0 0 0 0.16,-3.31 C 81.06,17.23 81,16.77 81,16.31 Z"
   id="path6833" />

							            <path
   inkscape:connector-curvature="0"
   d="m 95.12,32 c -0.94,2.55 -3.81,2.52 -4.47,2.52 A 5.69,5.69 0 0 1 88.81,34.25 4,4 0 0 1 86.43,31.61 7,7 0 0 1 86.21,29.33 V 18.55 c 0,-1.94 0,-3.81 1.72,-5.1 a 4.81,4.81 0 0 1 3,-0.95 4.6,4.6 0 0 1 2.88,0.86 3.65,3.65 0 0 1 1,1.17 c 0.62,1.07 0.65,2.21 0.65,4.63 V 29.48 A 7.22,7.22 0 0 1 95.12,32 Z M 92.59,18.3 A 5.22,5.22 0 0 0 92.24,15.63 1.48,1.48 0 0 0 90.9,15 2,2 0 0 0 89.84,15.3 c -0.78,0.49 -0.72,1.38 -0.72,3 v 11.61 c 0,1.16 0.19,2.27 1.69,2.27 1.87,0 1.78,-1.66 1.78,-2.95 z"
   id="path6835" />

							            <path
   inkscape:connector-curvature="0"
   d="M 103.53,34.33 V 24.26 h -2.69 V 34.33 H 97.93 V 12.65 h 2.91 v 8.81 h 2.69 v -8.81 h 2.9 v 21.68 z"
   id="path6837" />

							            <path
   inkscape:connector-curvature="0"
   d="M 108.93,34.33 V 12.65 h 2.88 v 21.68 z"
   id="path6839" />

							            <path
   inkscape:connector-curvature="0"
   d="m 120,34.33 h -3.44 l -3.38,-21.68 h 2.91 L 118.34,30 120.5,12.62 h 2.87 z"
   id="path6841" />

							            <path
   inkscape:connector-curvature="0"
   d="M 124.72,34.33 V 12.65 H 132 v 2.7 h -4.34 v 6.36 h 3.87 v 2.7 h -3.84 v 7.18 H 132 v 2.74 z"
   id="path6843" />

							            <path
   inkscape:connector-curvature="0"
   d="m 136.7,32.77 a 0.4,0.4 0 0 0 -0.43,-0.42 v 0 a 0.48,0.48 0 0 0 0.44,-0.53 0.52,0.52 0 0 0 -0.55,-0.57 h -0.91 v 2.17 h 0.49 v -0.9 h 0.13 c 0.37,0 0.34,0.22 0.34,0.48 a 1,1 0 0 0 0.06,0.42 h 0.48 a 3.14,3.14 0 0 1 -0.05,-0.65 z m -0.74,-0.56 h -0.22 V 31.6 H 136 c 0.16,0 0.26,0.08 0.26,0.29 0,0.21 -0.1,0.32 -0.26,0.32 z"
   id="path6845" />

							            <path
   inkscape:connector-curvature="0"
   d="m 136,34.58 a 2.25,2.25 0 1 1 2.25,-2.25 2.25,2.25 0 0 1 -2.25,2.25 z m 0,-4 a 1.75,1.75 0 1 0 1.75,1.75 1.75,1.75 0 0 0 -1.75,-1.75 z"
   id="path6847" />

							        </g>
    <g
       id="NetworksWordmark"
       transform="matrix(0.26458333,0,0,0.26458333,-228.38739,180.69729)"
       style="fill:#b2b5b6;fill-opacity:1">
							            <path
   inkscape:connector-curvature="0"
   d="m 54.582,48.33 v -8.763 h 1.194 l 3.568,7.695 0.025,-0.024 v -7.671 h 0.78 v 8.763 h -1.181 l -3.581,-7.78 -0.024,0.025 v 7.755 z"
   id="path6850"
   style="fill:#b2b5b6;fill-opacity:1" />

							    		<path
   inkscape:connector-curvature="0"
   d="m 69.637,39.567 v 0.655 H 66.433 V 43.5 h 3.057 v 0.655 h -3.057 v 3.52 h 3.289 v 0.655 h -4.068 v -8.763 z"
   id="path6852"
   style="fill:#b2b5b6;fill-opacity:1" />

							    		<path
   inkscape:connector-curvature="0"
   d="m 76.117,40.223 h -2.144 v -0.655 h 5.067 v 0.655 h -2.144 v 8.108 h -0.78 v -8.108 z"
   id="path6854"
   style="fill:#b2b5b6;fill-opacity:1" />

							    		<path
   inkscape:connector-curvature="0"
   d="m 87.408,39.567 h 1.047 l 1.766,7.683 h 0.024 l 1.876,-7.683 h 0.767 l -2.18,8.763 H 89.685 L 87.919,40.538 H 87.894 L 86.08,48.33 h -0.974 l -2.119,-8.763 h 0.828 l 1.778,7.744 h 0.025 z"
   id="path6856"
   style="fill:#b2b5b6;fill-opacity:1" />

							    		<path
   inkscape:connector-curvature="0"
   d="m 100.051,39.397 c 2.631,0 2.655,2.185 2.655,4.551 0,2.366 -0.024,4.551 -2.655,4.551 -2.631,0 -2.656,-2.185 -2.656,-4.551 0,-2.366 0.025,-4.551 2.656,-4.551 z m 0,8.448 c 1.851,0 1.876,-1.566 1.876,-3.896 0,-2.33 -0.024,-3.896 -1.876,-3.896 -1.852,0 -1.876,1.565 -1.876,3.896 0,2.331 0.024,3.896 1.876,3.896 z"
   id="path6858"
   style="fill:#b2b5b6;fill-opacity:1" />

							    		<path
   inkscape:connector-curvature="0"
   d="m 108.699,44.082 v 4.248 h -0.78 v -8.763 h 2.424 c 1.693,0 2.119,0.558 2.119,2.1 0,1.093 -0.183,1.821 -1.364,2.088 v 0.024 c 1.23,0.255 1.303,0.4 1.303,3.532 0,0.339 0.061,0.679 0.085,1.019 h -0.743 c -0.073,-0.255 -0.11,-1.711 -0.122,-2.185 -0.012,-0.376 0.243,-2.063 -1.449,-2.063 z m 0,-0.655 h 1.267 c 1.169,0 1.717,-0.304 1.717,-1.772 0,-1.201 -0.475,-1.432 -1.388,-1.432 h -1.596 z"
   id="path6860"
   style="fill:#b2b5b6;fill-opacity:1" />

							    		<path
   inkscape:connector-curvature="0"
   d="m 117.786,48.33 v -8.763 h 0.78 v 4.017 h 0.025 l 3.118,-4.017 h 0.938 l -3.289,4.09 3.386,4.673 h -0.975 l -3.179,-4.491 h -0.025 v 4.491 z"
   id="path6862"
   style="fill:#b2b5b6;fill-opacity:1" />

							    		<path
   inkscape:connector-curvature="0"
   d="m 131.184,41.788 c -0.024,-1.08 -0.292,-1.736 -1.486,-1.736 -0.95,0 -1.547,0.328 -1.547,1.359 0,1.299 0.658,1.335 1.656,2.051 1.085,0.778 2.193,1.009 2.193,2.708 0,1.566 -0.804,2.33 -2.339,2.33 -1.718,0 -2.485,-0.922 -2.412,-2.633 h 0.804 c 0,0.971 0.073,1.978 1.644,1.978 1.023,0 1.523,-0.546 1.523,-1.554 0,-1.189 -0.792,-1.529 -2.059,-2.306 -1.705,-1.043 -1.778,-1.565 -1.79,-2.44 -0.012,-1.517 0.95,-2.148 2.387,-2.148 1.827,0 2.217,1.129 2.217,2.391 z"
   id="path6864"
   style="fill:#b2b5b6;fill-opacity:1" />

							        </g>
    <g
       id="Hexagons"
       transform="matrix(0.26458333,0,0,0.26458333,-228.38739,180.69729)"
       style="fill:#ffc007;fill-opacity:1">
							            <path
   inkscape:connector-curvature="0"
   d="m 27.186,12.717 c 0.082,-0.144 0.189,-0.216 0.297,-0.217 -0.188,0 -0.375,0.041 -0.517,0.124 L 12.517,21.017 C 12.233,21.183 12,21.591 12,21.924 v 17.152 c 0,0.125 0.04,0.258 0.096,0.387 z"
   id="path6867"
   style="fill:#ffc007;fill-opacity:1" />

							    		<path
   inkscape:connector-curvature="0"
   d="m 27.781,12.717 15.09,26.747 c 0.056,-0.129 0.096,-0.262 0.096,-0.387 V 21.924 c 0,-0.333 -0.233,-0.741 -0.517,-0.906 L 28.001,12.625 c -0.142,-0.083 -0.33,-0.124 -0.517,-0.124 0.108,-10e-4 0.215,0.071 0.297,0.216 z"
   id="path6869"
   style="fill:#ffc007;fill-opacity:1" />

							    		<path
   inkscape:connector-curvature="0"
   d="m 27.484,19.475 -11.96,21.216 c -0.243,0.432 -0.096,0.982 0.329,1.229 l 11.113,6.456 c 0.285,0.165 0.75,0.165 1.035,0 L 39.114,41.92 c 0.425,-0.247 0.572,-0.797 0.329,-1.229 z"
   id="path6871"
   style="fill:#ffc007;fill-opacity:1" />

							        </g>
  </g>
</svg>