<?xml version="1.0" encoding="utf-8"?>
<!-- Generator: Adobe Illustrator 22.1.0, SVG Export Plug-In . SVG Version: 6.00 Build 0)  -->
<svg version="1.1" id="Calque_1" xmlns="http://www.w3.org/2000/svg" xmlns:xlink="http://www.w3.org/1999/xlink" x="0px" y="0px"
	 viewBox="0 0 322.1 102.8" enable-background="new 0 0 322.1 102.8" xml:space="preserve">
<polygon points="222.4,56.8 237.8,40.2 245.2,40.3 229.9,56.8 246.8,77.1 239.6,77.1 "/>
<polygon points="320.6,35.6 319.5,38.6 318.4,35.6 316.9,35.6 316.9,40.1 317.9,40.1 317.9,37 318,37 319.1,40.1 319.9,40.1 321,37 
	321,37 321,40.1 322.1,40.1 322.1,35.6 "/>
<polygon points="312.6,36.5 313.9,36.5 313.9,40.1 315,40.1 315,36.5 316.3,36.5 316.3,35.6 312.6,35.6 "/>
<g>
	<path d="M164.6,62.5c0,5.1-4.2,9.3-9.3,9.3c-5.1,0-9.3-4.2-9.3-9.3l0-22.1h-5.9v22.1c0,8.4,6.8,15.2,15.2,15.2s15.2-6.8,15.2-15.2
		V40.4h-5.9L164.6,62.5z"/>
	<path d="M194.3,46c4.1,0,8,2,10.4,5.3l5.5-2.3c-3.5-5.6-9.4-8.9-15.9-8.9h-0.2c-0.2,0-0.3,0-0.5,0l-0.2,0
		c-9.9,0.6-17.6,8.9-17.6,18.8c0,9.9,7.7,18.1,17.6,18.8l0.2,0l0.3,0c0.1,0,0.1,0,0.2,0l0.1,0c6.5,0,12.5-3.3,15.9-8.9l-5.5-2.3
		c-2.4,3.3-6.3,5.3-10.4,5.3c-0.1,0-0.2,0-0.3,0l-0.1,0c-6.7-0.5-12-6.1-12-12.9C181.8,51.9,187.3,46.2,194.3,46"/>
</g>
<rect x="216.5" y="40.2" width="5.9" height="36.9"/>
<g>
	<path d="M275.5,62.5c0,5.1-4.2,9.3-9.3,9.3c-5.1,0-9.3-4.2-9.3-9.3l0-22.3H251v22.3c0,8.4,6.8,15.2,15.2,15.2s15.2-6.8,15.2-15.2
		V40.2h-5.9V62.5z"/>
	<path d="M133.2,50.9L133.2,50.9c0-6.8-5.6-10.6-12.4-10.6h-17.1v9.1v1.4V77h5.9V64.1h0c0,0,0-7.6,0-7.5v-5.8h0v0v-1.4v-3.7h11.1
		c4.2,0,7.3,1.6,7.3,5.1c0,4.2-3.1,5.8-7.3,5.8h-11.1l5.1,6.4l11.4,14.1h8l-12.3-14.6C128.7,62.5,133.2,57.7,133.2,50.9"/>
	<path d="M301.8,56c-2.9-0.8-4.9-1.7-6.1-2.6c-1.2-0.9-1.9-2.1-1.9-3.5c0-1.6,0.6-2.8,1.7-3.8c1.1-1,2.7-1.5,4.8-1.5
		c2.1,0,3.9,0.6,5.2,1.7c1.3,1.2,1.9,2.7,1.9,4.6h5.9l0-0.2c0.1-3.1-1.1-5.8-3.5-7.9c-2.4-2.1-5.6-3.2-9.6-3.2c-3.7,0-6.8,1-9.1,2.9
		c-2.4,1.9-3.6,4.4-3.6,7.4c0,2.9,1.1,5.2,3.2,7c2.2,1.8,5.2,3.2,9.2,4.3c2.8,0.8,4.7,1.7,5.8,2.6s1.6,2.2,1.6,3.8
		c0,1.6-0.6,2.8-1.8,3.7c-1.2,0.9-2.9,1.4-5.1,1.4c-2.2,0-4.1-0.6-5.6-1.7c-1.5-1.1-2.3-2.8-2.3-5h-5.9l0,0.2
		c-0.1,3.6,1.3,6.4,4.1,8.4c2.8,2,6.1,3,9.8,3c3.9,0,7.1-0.9,9.5-2.7c2.4-1.8,3.6-4.3,3.6-7.3c0-2.9-1-5.3-3-7.2
		C308.6,58.6,305.7,57.1,301.8,56"/>
	<path fill="#272525" d="M63.4,30.2c0.5,0.5,0.9,1,1.4,1.5C64.4,31.2,63.9,30.8,63.4,30.2"/>
	<path fill="#CE7212" d="M118.3,16.8l1.9-1.1c0.8-0.5,1.1-1.6,0.6-2.4l0,0c-0.5-0.8-1.5-1-2.3-0.6l-2,1.2c0,0-0.1,0-0.1,0.1
		l-14.8,10.4l16.5-7.5C118.2,16.9,118.3,16.8,118.3,16.8"/>
	<path fill="#CE7212" d="M120.1,21.9l-17.3,5.1l18.1-1.8c0.1,0,0.1,0,0.2,0l2.2-0.5c0.9-0.2,1.5-1.1,1.3-2.1c-0.2-0.9-1.1-1.5-2-1.3
		l-2.3,0.5C120.2,21.9,120.1,21.9,120.1,21.9"/>
	<path fill="#CE7212" d="M122.8,30.7l-2.3-0.3c0,0-0.1,0-0.1,0l-18-0.8l17.7,4.2c0.1,0,0.1,0,0.2,0l2.2,0.3c1,0.1,1.8-0.6,1.9-1.5v0
		C124.4,31.6,123.8,30.8,122.8,30.7"/>
	<path d="M92.9,20.1c0,0,4.6-2.2,9.2-4.6c4.6-2.5,1.9-6,0.5-6.3c-1.4-0.3-7.3,0.8-7.3,0.8s-6.2,1.1-10.9,1.2
		c-4.7,0.1-6.2-3.3-6.2-3.3s-2.1-4-3-5.9c-0.9-1.9-1.4-2.3-2.9-1.6c-1.2,0.6,0.7,4.9,0.7,4.9S74,8,74.5,9.2c0.5,1.2,0.7,2.2-0.5,2.8
		c-1.2,0.5-1.9-1.6-1.9-1.6l-1.9-3.7c0,0-1.1-1.9-1.5-2.4c-1-1.3-6.5,1.2-7,2.6c-0.3,0.9,0.9,4.4,4,1.6c0.3-0.3,0.4,0.2,0.5,0.5
		c0.5,1.1,1,2.2,1.2,2.9c0.2,0.5-0.4,2.2,0.8,5.2c-0.3,0.7-1.5,1.2-2.3,1.9c-0.5,0.5-1.3,1-2.2,1.5c0,0,0,0,0,0l-1.2,0.7
		c0,0-0.1,0-0.1,0c-0.1,0-0.1,0-0.2,0.1c0,0,0,0,0,0c-1,1,1.3,4.9,5.1,8.6c3.2,3.1,6.5,5.3,8.1,5.3c0.3,0,0.6-0.1,0.8-0.2
		c0.1-0.1,0.1-0.1,0.1-0.2c0-0.1,0-0.1,0.1-0.2c0-0.1,0-0.1,0-0.2c0-0.1,0.1-0.2,0.1-0.3c0,0,0,0,0,0c0.1-0.4,0.3-0.8,0.5-1.1
		c0.3-0.5,2.3-2.3,4.1-1.6c4.6,1.6,11.4,7.5,12.4,7.7c1.3,0.2,2.7-0.3,3.3-1.7c0.5-1.1-0.4-2.3-0.6-2.7c-0.4-0.7-1.6-2.2-1.6-2.2
		L91.6,29c0,0-3.3-3.2-3.3-5C88.2,22.7,92.9,20.1,92.9,20.1"/>
	<path d="M65.3,32.2c-0.2-0.2-0.3-0.3-0.5-0.5c-0.4-0.4-0.9-0.9-1.4-1.5c0,0,0-0.1-0.1-0.1c-0.1-0.1-0.2-0.2-0.3-0.3
		c-0.1-0.1-0.2-0.2-0.3-0.3c0,0,0,0-0.1-0.1c-1.8-2.1-3.4-4.5-3.8-6.7c0,0,0,0,0,0c0,0,0,0,0,0c0,0,0,0,0,0
		c-1.3,0.5-6.1,1.7-7.6,2.2c-1.8,0.6-4.4,1-6.8,1.2c-2.7,0.2-8-0.4-10.8-0.7c-1.6-0.1-3.5-0.1-5.4,0.2c-3.2,0.5-7.6,2.9-8,3
		c-2,0.7-6.7,2.4-11.9,0.2c-7.5-2.7-6.5-12-7.1-11.7c-0.8,0.4-2,5.1-0.5,9.2c0.5,1.4,1.5,2.8,2.4,3.9c0.8,1,2.6,2.1,4.5,2.8
		c0.9,0.3,1.8,0.6,2.5,0.7c0.5,0.1,2.1,0.7,3.3,1.7c1,0.8,1.6,2,1.4,2.4c-2.9,8.3-1,14.4-1,14.8c0.2,6.2-4,43.7-3.9,44.1
		c0,0.1-0.1,0.5,0.1,0.9c0.3,0.5,0.9,1.1,1.2,1.5c0.5,0.7,0.7,1.6,1.4,1.7c3.2,0.4,4.9,0.1,4.7-2.4c0-0.4-0.3-1.1-0.9-1.5
		c-0.6-0.4-1.6-0.4-2-1c-0.8-1-0.7-2.6-0.6-3.3c0.5-3.5,1.5-9.8,2.1-14c0.4-2.4,1.9-6.7,2.5-7.8c3.5-6.8,5.6-12.1,6.7-15.2
		c0.3-1,1.7-0.6,1.6,0.4c-0.1,1-0.8,2.9-0.9,3c-0.2,0.3-0.3,0.6-0.3,1c0.1,3.9,1.4,20.8,1.3,24.1c-0.1,4.1-0.2,6.8-0.4,8.2
		c-0.1,0.6,1,1.8,1.7,2.3c0.7,0.6,1,1.4,1.3,1.5c0.4,0.1,1.7,0.2,2.9,0.1c1.1-0.1,2-0.4,2.2-0.8c0.1-0.2-0.2-1.8-0.7-2.2
		c-0.7-0.6-1.9-1.2-2.3-1.4c-1.2-0.6-1.1-7.2-1.1-7.2L33,66.3c0,0,5.6-11.7,9-13.3c6.3-1.5,11.7-0.5,11.7-0.5s6.4,1.8,8,8.9
		c1.5,6.6,3.5,27,4.2,33.7c0.1,1.3,0.3,2.3,0.5,2.4c0.4,0.3,1.5,0.7,1.7,1.5c0.2,0.8,0.3,1.7,1.2,2.1c0.6,0,1.5,0.2,2.9,0.2
		c0.8,0,1.8,0.1,2.2-0.4c0.2-0.2,0.1-1.8,0.1-1.8c0-0.1-0.1-0.3-0.2-0.6c-0.3-0.5-0.7-1.1-1.4-1.3c-0.5-0.2-1.3-0.3-1.7-0.5
		c-0.2-0.1-0.6-0.6-0.7-0.8c-1.4-2.6-1.8-6.2-2-7.8c-1.3-7.4,1.6-31.9,1.8-33.6c0,0,0.6-0.6,1.2-1.4c0.1-0.1,0.2-0.3,0.2-0.3
		c0.4,2,0,5,0.5,8.3c0.4,2.7,0.9,5.6,1.4,8.4C74.8,76,76.3,93,77.5,94c0.1,0.1,0.8,0.1,0.9,0.3c0.1,0.5,0,1.8,0.4,1.9
		c2.2,0.5,4.5,0.6,5.4-0.3c0.3-0.3,0.2-1.4,0.2-2c0-0.2-0.1-0.8-0.7-1.2c-0.5-0.4-1.6-0.2-2.1-0.7c-0.4-0.3-0.4-0.7-0.6-1.3
		c-1.6-4.3-1.8-12.8-2.2-17.1c-0.4-4.4-0.7-9.3-0.6-14.1c0.1-5.2,0.8-9.6,0.1-13.2c-1-5.1-2.5-7.8-2.5-7.8s0-0.1,0-0.2
		c-0.1,0-0.2,0-0.3,0C71.8,38.2,67.2,34,65.3,32.2"/>
	<path fill="#CE7212" d="M76.6,34.5c0,0.1,0,0.1,0,0.2c0,0.1,0,0.1-0.1,0.2c0,0.1-0.1,0.1-0.1,0.2c-0.2,0.2-0.4,0.3-0.8,0.2
		c-1.6,0-4.9-2.2-8.1-5.3c-3.8-3.8-6.1-7.6-5.1-8.6v0c0,0,0,0,0,0c0,0,0.1-0.1,0.2-0.1c0,0,0.1,0,0.1,0l1.2-0.7c0,0,0,0,0,0
		c-0.6-0.3-1.1-0.5-1.5-0.4c-0.2,0-2,1-2.4,1.3c-0.6,0.5-0.9,0.9-0.9,1.3c0,0,0,0,0,0c0,0,0,0,0,0c0.3,2.2,2,4.6,3.8,6.7
		c0,0,0,0,0.1,0.1c0.1,0.1,0.2,0.2,0.3,0.3c0.1,0.1,0.2,0.2,0.3,0.3c0,0,0,0.1,0.1,0.1c0.5,0.5,0.9,1,1.4,1.5
		c0.2,0.2,0.3,0.3,0.5,0.5c1.8,1.8,6.5,6,10.1,6.1c0.1,0,0.2,0,0.3,0c0.1,0,0.1,0,0.2,0c0,0,0.1,0,0.1,0c0.5-0.2,0.6-0.5,0.6-0.5
		s0.5-2.1,0.5-2.7c0-0.3-0.2-0.6-0.4-0.8c0,0,0,0,0,0C76.6,34.3,76.6,34.4,76.6,34.5"/>
	<path fill="#CE7212" d="M106.2,97.3c0.7,0,1.3-0.2,1.7-0.6c0.4-0.4,0.6-1,0.6-1.7v-0.8l-1.2,0c-0.9,0-1.6,0.2-2,0.5
		c-0.4,0.3-0.6,0.7-0.6,1.3c0,0.4,0.1,0.7,0.4,1C105.4,97.2,105.7,97.3,106.2,97.3 M109.2,98.7l-0.4-1.3h-0.1
		c-0.4,0.6-0.9,0.9-1.4,1.2c-0.5,0.2-1,0.3-1.7,0.3c-0.9,0-1.6-0.2-2.1-0.7c-0.5-0.5-0.8-1.2-0.8-2.1c0-1,0.4-1.7,1.1-2.2
		c0.7-0.5,1.8-0.8,3.2-0.8l1.6-0.1v-0.5c0-0.6-0.1-1-0.4-1.3c-0.3-0.3-0.7-0.4-1.3-0.4c-0.5,0-0.9,0.1-1.4,0.2
		c-0.4,0.1-0.9,0.3-1.3,0.5l-0.6-1.4c0.5-0.3,1.1-0.5,1.7-0.6c0.6-0.1,1.2-0.2,1.7-0.2c1.2,0,2.1,0.3,2.7,0.8
		c0.6,0.5,0.9,1.3,0.9,2.4v6.2H109.2z"/>
	<path fill="#CE7212" d="M125.3,98.7h-2V93c0-0.7-0.1-1.2-0.4-1.6c-0.3-0.4-0.7-0.5-1.4-0.5c-0.8,0-1.4,0.2-1.8,0.7
		c-0.4,0.5-0.6,1.3-0.6,2.5v4.6h-2v-9.3h1.5l0.3,1.2h0.1c0.3-0.4,0.7-0.8,1.2-1c0.5-0.2,1.1-0.4,1.7-0.4c2.2,0,3.3,1.1,3.3,3.4V98.7
		z"/>
	<path fill="#CE7212" d="M146.1,93.5l-1.1-3.3c-0.1-0.2-0.2-0.6-0.3-1.1c-0.1-0.5-0.2-0.8-0.3-1.1c-0.2,0.7-0.4,1.4-0.7,2.3
		l-1.1,3.2H146.1z M147.8,98.7l-1.2-3.4h-4.7l-1.2,3.4h-2.1l4.6-12.3h2.2l4.6,12.3H147.8z"/>
	<path fill="#CE7212" d="M157.3,92.1h1.4c0.9,0,1.6-0.2,2-0.5c0.4-0.3,0.6-0.9,0.6-1.5c0-0.7-0.2-1.2-0.7-1.5
		c-0.5-0.3-1.1-0.5-2-0.5h-1.3V92.1z M157.3,93.8v4.9h-2V86.4h3.5c1.6,0,2.8,0.3,3.5,0.9c0.8,0.6,1.1,1.5,1.1,2.7
		c0,1.5-0.8,2.6-2.4,3.3l3.5,5.4h-2.3l-2.9-4.9H157.3z"/>
	<path fill="#CE7212" d="M172.1,92.1h1.4c0.9,0,1.6-0.2,2-0.5c0.4-0.3,0.6-0.9,0.6-1.5c0-0.7-0.2-1.2-0.7-1.5
		c-0.5-0.3-1.1-0.5-2-0.5h-1.3V92.1z M172.1,93.8v4.9h-2V86.4h3.5c1.6,0,2.8,0.3,3.5,0.9c0.8,0.6,1.1,1.5,1.1,2.7
		c0,1.5-0.8,2.6-2.4,3.3l3.5,5.4H177l-2.9-4.9H172.1z"/>
</g>
<rect x="184.8" y="86.4" fill="#CE7212" width="2" height="12.3"/>
<g>
	<path fill="#CE7212" d="M200.9,95.3c0,1.1-0.4,1.9-1.2,2.6c-0.8,0.6-1.9,0.9-3.3,0.9c-1.4,0-2.5-0.2-3.4-0.6v-1.9
		c0.6,0.3,1.2,0.5,1.8,0.6c0.6,0.2,1.2,0.2,1.8,0.2c0.8,0,1.4-0.1,1.8-0.5c0.4-0.3,0.7-0.7,0.6-1.2c0-0.5-0.2-0.8-0.5-1.2
		c-0.3-0.3-1.1-0.7-2.1-1.1c-1.1-0.5-1.9-1-2.4-1.6c-0.5-0.6-0.7-1.3-0.7-2.1c0-1,0.4-1.8,1.1-2.4c0.7-0.6,1.7-0.9,2.9-0.9
		c1.2,0,2.3,0.3,3.5,0.8l-0.6,1.6c-1.1-0.5-2.1-0.7-2.9-0.7c-0.6,0-1.1,0.1-1.5,0.4c-0.3,0.3-0.5,0.7-0.5,1.1c0,0.3,0.1,0.6,0.2,0.8
		c0.1,0.2,0.4,0.4,0.7,0.6c0.3,0.2,0.9,0.5,1.7,0.8c0.9,0.4,1.6,0.7,2,1c0.4,0.3,0.7,0.7,0.9,1.1C200.8,94.3,200.9,94.8,200.9,95.3"
		/>
	<path fill="#CE7212" d="M218.8,98.8c-1.4,0-2.5-0.4-3.2-1.2c-0.7-0.8-1.1-2-1.1-3.5c0-1.6,0.4-2.8,1.1-3.6c0.8-0.8,1.9-1.3,3.3-1.3
		c1,0,1.9,0.2,2.6,0.5l-0.6,1.6c-0.8-0.3-1.5-0.5-2.1-0.5c-1.6,0-2.4,1.1-2.4,3.2c0,1,0.2,1.8,0.6,2.3c0.4,0.5,1,0.8,1.8,0.8
		c0.9,0,1.7-0.2,2.5-0.7v1.7c-0.4,0.2-0.7,0.4-1.1,0.4C219.9,98.8,219.4,98.8,218.8,98.8"/>
	<path fill="#CE7212" d="M228.8,94c0,2.1,0.8,3.2,2.4,3.2c1.6,0,2.3-1.1,2.3-3.2c0-2.1-0.8-3.2-2.4-3.2c-0.8,0-1.4,0.3-1.8,0.8
		C229,92.2,228.8,93,228.8,94 M235.6,94c0,1.5-0.4,2.7-1.2,3.5c-0.8,0.8-1.9,1.3-3.2,1.3c-0.9,0-1.6-0.2-2.3-0.6
		c-0.7-0.4-1.2-1-1.5-1.7c-0.4-0.7-0.5-1.6-0.5-2.5c0-1.5,0.4-2.7,1.2-3.5c0.8-0.8,1.9-1.3,3.3-1.3c1.3,0,2.4,0.4,3.2,1.3
		C235.2,91.4,235.6,92.6,235.6,94"/>
	<path fill="#CE7212" d="M249.4,98.7h-2V93c0-0.7-0.1-1.2-0.4-1.6c-0.3-0.4-0.7-0.5-1.3-0.5c-0.8,0-1.3,0.2-1.7,0.7
		c-0.4,0.5-0.5,1.3-0.5,2.5v4.6h-2v-9.3h1.5l0.3,1.2h0.1c0.3-0.4,0.6-0.8,1.1-1c0.5-0.2,1-0.4,1.6-0.4c1.4,0,2.4,0.5,2.8,1.5h0.1
		c0.3-0.5,0.7-0.8,1.2-1.1c0.5-0.3,1.1-0.4,1.7-0.4c1.1,0,1.9,0.3,2.4,0.8c0.5,0.6,0.8,1.4,0.8,2.6v6h-2V93c0-0.7-0.1-1.2-0.4-1.6
		c-0.3-0.4-0.7-0.5-1.3-0.5c-0.8,0-1.3,0.2-1.7,0.7c-0.4,0.5-0.5,1.2-0.5,2.2V98.7z"/>
	<path fill="#CE7212" d="M266,90.8c-0.8,0-1.4,0.2-1.7,0.7c-0.4,0.5-0.5,1.2-0.5,2.2V94c0,1.1,0.2,1.9,0.5,2.5
		c0.4,0.5,0.9,0.8,1.8,0.8c0.7,0,1.2-0.3,1.6-0.8c0.4-0.6,0.6-1.4,0.6-2.4c0-1-0.2-1.8-0.5-2.4C267.3,91.1,266.7,90.8,266,90.8
		 M266.5,98.8c-1.2,0-2.1-0.4-2.7-1.3h-0.1c0.1,0.8,0.1,1.3,0.1,1.4v3.8h-2V89.4h1.6c0,0.2,0.1,0.6,0.3,1.2h0.1
		c0.6-0.9,1.5-1.4,2.8-1.4c1.2,0,2.1,0.4,2.7,1.3c0.6,0.8,1,2,1,3.5c0,1.5-0.3,2.7-1,3.5C268.6,98.4,267.7,98.8,266.5,98.8"/>
	<path fill="#CE7212" d="M279.1,97.3c0.7,0,1.3-0.2,1.7-0.6c0.4-0.4,0.6-1,0.6-1.7v-0.8l-1.2,0c-0.9,0-1.6,0.2-2,0.5
		c-0.4,0.3-0.6,0.7-0.6,1.3c0,0.4,0.1,0.7,0.4,1C278.3,97.2,278.6,97.3,279.1,97.3 M282.1,98.7l-0.4-1.3h-0.1
		c-0.4,0.6-0.9,0.9-1.3,1.2c-0.5,0.2-1,0.3-1.7,0.3c-0.9,0-1.6-0.2-2.1-0.7c-0.5-0.5-0.8-1.2-0.8-2.1c0-1,0.4-1.7,1.1-2.2
		c0.7-0.5,1.8-0.8,3.2-0.8l1.6-0.1v-0.5c0-0.6-0.1-1-0.4-1.3c-0.3-0.3-0.7-0.4-1.3-0.4c-0.5,0-0.9,0.1-1.4,0.2
		c-0.4,0.1-0.9,0.3-1.3,0.5l-0.6-1.4c0.5-0.3,1.1-0.5,1.7-0.6c0.6-0.1,1.2-0.2,1.7-0.2c1.2,0,2.1,0.3,2.7,0.8
		c0.6,0.5,0.9,1.3,0.9,2.4v6.2H282.1z"/>
	<path fill="#CE7212" d="M298.2,98.7h-2V93c0-0.7-0.1-1.2-0.4-1.6c-0.3-0.4-0.7-0.5-1.4-0.5c-0.8,0-1.4,0.2-1.8,0.7
		c-0.4,0.5-0.6,1.3-0.6,2.5v4.6h-2v-9.3h1.5l0.3,1.2h0.1c0.3-0.4,0.7-0.8,1.2-1s1.1-0.4,1.7-0.4c2.2,0,3.3,1.1,3.3,3.4V98.7z"/>
	<path fill="#CE7212" d="M303.3,89.4h2.1l1.9,5.3c0.3,0.8,0.5,1.5,0.6,2.1h0.1c0.1-0.3,0.1-0.7,0.3-1.1c0.1-0.4,0.8-2.5,2.1-6.2h2.1
		l-4,10.5c-0.7,1.9-1.9,2.9-3.6,2.9c-0.4,0-0.9,0-1.3-0.1v-1.6c0.3,0.1,0.6,0.1,1,0.1c0.9,0,1.6-0.6,2-1.7l0.3-0.9L303.3,89.4z"/>
</g>
</svg>